<?xml version="1.0" encoding="utf-8"?>
<!-- Generator: Adobe Illustrator 19.1.0, SVG Export Plug-In . SVG Version: 6.00 Build 0)  -->
<!DOCTYPE svg PUBLIC "-//W3C//DTD SVG 1.1//EN" "http://www.w3.org/Graphics/SVG/1.1/DTD/svg11.dtd">
<svg version="1.1" id="Layer_1" xmlns="http://www.w3.org/2000/svg" xmlns:xlink="http://www.w3.org/1999/xlink" x="0px" y="0px"
	 width="24px" height="24px" viewBox="0 0 24 24" style="enable-background:new 0 0 24 24;" xml:space="preserve">
	<g>
		<path style="fill:#FFFFFF" d="M7.9,19.9L1,12.6l6.9-7.3l0,0C8,5.2,8,5.1,8,5c0-0.2-0.2-0.4-0.4-0.4c-0.1,0-0.2,0-0.3,0.1l0,0l-7.2,7.6l0,0
			C0,12.4,0,12.5,0,12.6s0,0.2,0.1,0.3l0,0l7.2,7.6l0,0c0.1,0.1,0.2,0.1,0.3,0.1c0.2,0,0.4-0.2,0.4-0.4C8,20.1,8,20,7.9,19.9
			L7.9,19.9z"/>
	</g>
</svg>
